<?xml version="1.0" ?><!DOCTYPE svg  PUBLIC '-//W3C//DTD SVG 1.1//EN'  'http://www.w3.org/Graphics/SVG/1.1/DTD/svg11.dtd'><svg enable-background="new 0 0 128 128" id="Слой_1" version="1.1" viewBox="0 0 128 128" xml:space="preserve" xmlns="http://www.w3.org/2000/svg" xmlns:xlink="http://www.w3.org/1999/xlink"><g><g><path d="M96.4,124H31.6c-5.3,0-9-5.3-7.1-10.2L34,87.9c1.1-3,3.9-5,7.1-5h45.7c3.2,0,6,2,7.1,5l9.6,25.9    C105.4,118.7,101.7,124,96.4,124z" fill="#213358"/></g><g><path d="M63.3,115.1c-0.7,0-1.2-0.5-1.2-1.2c0-0.7,0.5-1.3,1.2-1.3c0.3,0,0.6-0.1,0.8-0.1c0.7-0.1,1.3,0.3,1.5,1    c0.1,0.7-0.3,1.3-1,1.5C64.2,115,63.8,115.1,63.3,115.1C63.4,115.1,63.4,115.1,63.3,115.1z M59.4,114.4c-0.2,0-0.4,0-0.5-0.1    c-0.3-0.2-0.7-0.3-1-0.5c-0.6-0.4-0.8-1.1-0.4-1.7s1.1-0.8,1.7-0.4c0.2,0.2,0.5,0.3,0.8,0.4c0.6,0.3,0.9,1,0.6,1.7    C60.4,114.1,59.9,114.4,59.4,114.4z M67.9,113.3c-0.4,0-0.7-0.1-0.9-0.4c-0.5-0.5-0.4-1.3,0.1-1.8c0.2-0.2,0.4-0.4,0.5-0.6    c0.4-0.5,1.2-0.6,1.8-0.2c0.5,0.4,0.6,1.2,0.2,1.8c-0.2,0.3-0.5,0.6-0.9,0.9C68.5,113.2,68.2,113.3,67.9,113.3z M55.2,111.8    c-0.2,0-0.4,0-0.5-0.1c-0.3-0.1-0.6-0.2-0.8-0.3c-0.6-0.2-1-1-0.7-1.6c0.2-0.6,1-1,1.6-0.7c0.3,0.1,0.7,0.3,1,0.4    c0.6,0.3,0.9,1,0.6,1.7C56.1,111.5,55.6,111.8,55.2,111.8z M44.5,111.3c-0.5,0-1-0.3-1.2-0.8c-0.2-0.6,0.1-1.4,0.8-1.6    c0.3-0.1,0.7-0.2,1-0.3c0.7-0.2,1.4,0.2,1.5,0.9c0.2,0.7-0.2,1.4-0.9,1.5c-0.3,0.1-0.6,0.2-0.9,0.3    C44.7,111.3,44.6,111.3,44.5,111.3z M50.4,110.5c0,0-0.1,0-0.1,0c-0.3,0-0.6,0-0.9,0c-0.7,0-1.2-0.6-1.2-1.3    c0-0.7,0.6-1.2,1.2-1.2c0,0,0,0,0,0c0.4,0,0.7,0,1.1,0.1c0.7,0.1,1.2,0.7,1.1,1.3C51.6,110.1,51,110.5,50.4,110.5z M68.8,108.9    c-0.4,0-0.7-0.2-1-0.5c-0.1-0.2-0.3-0.3-0.5-0.5c-0.5-0.4-0.7-1.2-0.2-1.8c0.4-0.6,1.2-0.7,1.8-0.2c0.4,0.3,0.7,0.6,0.9,0.9    c0.4,0.5,0.3,1.3-0.2,1.8C69.4,108.9,69.1,108.9,68.8,108.9z" fill="#F1F1F1"/></g><g><path d="M40,117.2c-0.2,0-0.4-0.1-0.6-0.2l-7.1-4c-0.6-0.3-0.8-1.1-0.5-1.7c0.3-0.6,1.1-0.8,1.7-0.5l7.1,4    c0.6,0.3,0.8,1.1,0.5,1.7C40.9,117,40.5,117.2,40,117.2z" fill="#F1F7F2"/></g><g><path d="M33,117.2c-0.4,0-0.9-0.2-1.1-0.6c-0.3-0.6-0.1-1.4,0.5-1.7l7.1-4c0.6-0.3,1.4-0.1,1.7,0.5    c0.3,0.6,0.1,1.4-0.5,1.7l-7.1,4C33.4,117.2,33.2,117.2,33,117.2z" fill="#F1F7F2"/></g><g opacity="0.2"><path d="M87.6,97.7c0,4.2-6.8,7.6-15.2,7.6H64c0-4.2,14.1-14.8,16.4-14.1C84.7,92.6,87.6,95,87.6,97.7z" fill="#62345B"/></g><g><path d="M96.4,125.2H31.6c-2.9,0-5.6-1.4-7.3-3.8c-1.7-2.4-2-5.4-1-8.1l9.6-25.9c1.3-3.5,4.6-5.8,8.3-5.8h45.7    c3.7,0,7,2.3,8.3,5.8l9.6,25.9c1,2.7,0.6,5.8-1,8.1C102,123.8,99.3,125.2,96.4,125.2z M41.2,84.2c-2.6,0-5,1.7-6,4.1l-9.6,25.9    c-0.7,2-0.5,4.1,0.7,5.8s3.1,2.7,5.2,2.7h64.8c2.1,0,4-1,5.2-2.7s1.5-3.9,0.7-5.8l-9.6-25.9c-0.9-2.5-3.3-4.1-6-4.1H41.2z" fill="#62345B"/></g><g><path d="M102.8,42.8C102.8,21.4,85.4,4,64,4S25.2,21.4,25.2,42.8c0,0.7,0,1.4,0.1,2c1.1,21.8,18.8,47.7,36.2,58.5    c0.8,0.5,1.7,0.7,2.6,0.7l0,0c0.9,0,1.7-0.2,2.5-0.7c17.4-10.7,35.1-36.7,36.2-58.5C102.8,44.1,102.8,43.5,102.8,42.8z" fill="#e39401"/></g><g opacity="0.2"><path d="M64,4c-1.1,0-2.3,0.1-3.4,0.2C80.4,5.9,96,22.5,96,42.8c0,0.7,0,1.3-0.1,2c-1,21.4-18.2,46.9-35.3,57.9    c0.3,0.2,0.6,0.4,0.9,0.6c0.8,0.5,1.7,0.7,2.6,0.7c0.9,0,1.7-0.2,2.5-0.7c17.4-10.7,35.1-36.7,36.2-58.5c0-0.7,0.1-1.3,0.1-2    C102.8,21.4,85.4,4,64,4z" fill="#62345B"/></g><g><path d="M64,105.2c-1.1,0-2.3-0.3-3.2-0.9C44,94,25.1,68.3,24,44.9c0-0.7-0.1-1.4-0.1-2.1c0-22.1,18-40,40-40    s40,18,40,40c0,0.7,0,1.4-0.1,2.1c-1.1,23.4-20,49.1-36.8,59.5C66.3,104.9,65.2,105.2,64,105.2C64.1,105.2,64,105.2,64,105.2z     M64,5.2c-20.7,0-37.5,16.8-37.5,37.5c0,0.7,0,1.3,0.1,2c1.1,21.9,19.3,47.4,35.6,57.5c0.5,0.3,1.2,0.5,1.9,0.5v1.2l0-1.3    c0.7,0,1.3-0.2,1.8-0.5c16.3-10.1,34.5-35.6,35.6-57.5c0-0.7,0.1-1.3,0.1-2C101.5,22.1,84.7,5.2,64,5.2z" fill="#62345B"/></g><g><circle cx="64" cy="42.8" fill="#213358" r="30.6"/></g><g><path d="M64,74.7c-17.6,0-31.9-14.3-31.9-31.9S46.4,10.9,64,10.9c17.6,0,31.9,14.3,31.9,31.9S81.6,74.7,64,74.7z     M64,13.4c-16.2,0-29.4,13.2-29.4,29.4S47.8,72.2,64,72.2S93.4,59,93.4,42.8S80.2,13.4,64,13.4z" fill="#62345B"/></g><g><path d="M71.5,60h-14c-2.8,0-5-2.2-5-5V32c0-1.1,0.9-2,2-2h19c1.1,0,2,0.9,2,2v23C75.5,57.8,74.3,60,71.5,60z" fill="#F5F1E3"/></g><g><path d="M71.5,60h-14c-2.8,0-5-2.2-5-5V32c0-1.1,0.9-2,2-2h19c1.1,0,2,0.9,2,2v23C75.5,57.8,74.3,60,71.5,60z" fill="#F5F1E3"/></g><g><path d="M71.5,60h-14c-2.8,0-5-2.2-5-5V37h23v18C75.5,57.8,74.3,60,71.5,60z" fill="#ED9E77"/></g><g><path d="M75.5,38.2h-23c-0.7,0-1.2-0.6-1.2-1.2s0.6-1.2,1.2-1.2h23c0.7,0,1.2,0.6,1.2,1.2S76.2,38.2,75.5,38.2z" fill="#62345B"/></g><g><path d="M71.5,61.2h-14c-3.4,0-6.2-2.8-6.2-6.2V32c0-1.8,1.5-3.2,3.2-3.2h19c1.8,0,3.2,1.5,3.2,3.2v23    C76.8,58.8,74.7,61.2,71.5,61.2z M54.5,31.2c-0.4,0-0.8,0.3-0.8,0.8v23c0,2.1,1.7,3.8,3.8,3.8h14c2.4,0,2.8-2.3,2.8-3.8V32    c0-0.4-0.3-0.8-0.8-0.8H54.5z" fill="#62345B"/></g><g><path d="M58.5,57.2c-0.7,0-1.2-0.6-1.2-1.2V43c0-0.7,0.6-1.2,1.2-1.2s1.2,0.6,1.2,1.2v13    C59.8,56.7,59.2,57.2,58.5,57.2z" fill="#62345B"/></g><g><path d="M64,57.2c-0.7,0-1.2-0.6-1.2-1.2V43c0-0.7,0.6-1.2,1.2-1.2s1.2,0.6,1.2,1.2v13    C65.2,56.7,64.7,57.2,64,57.2z" fill="#62345B"/></g><g><path d="M69.5,57.2c-0.7,0-1.2-0.6-1.2-1.2V43c0-0.7,0.6-1.2,1.2-1.2s1.2,0.6,1.2,1.2v13    C70.8,56.7,70.2,57.2,69.5,57.2z" fill="#62345B"/></g><g><path d="M73.5,30c-4.5-1.5-6.3-2-9.5-3.4c-6.4-2.8-9.5-0.5-9.5,3.4h9.2c1.1,0,2,0.9,2,2v6.1c0,1.1,0.9,1.9,1.9,1.9    l0,0c1.1,0,1.9-0.9,1.9-1.9V32c0-1.1,0.9-2,2-2H73.5z" fill="#F5F1E3"/></g><g><path d="M67.7,41.2c-1.7,0-3.2-1.4-3.2-3.2V32c0-0.4-0.3-0.8-0.8-0.8h-9.2c-0.7,0-1.2-0.6-1.2-1.2    c0-3.6,2.2-5.8,5.8-5.8c1.6,0,3.4,0.4,5.5,1.3c2.4,1,4.1,1.6,6.8,2.5c0.8,0.3,1.6,0.5,2.6,0.9c0.6,0.2,0.9,0.8,0.8,1.4    c-0.1,0.6-0.6,1-1.2,1h-1.9c-0.4,0-0.8,0.3-0.8,0.8v6.1C70.8,39.8,69.4,41.2,67.7,41.2z M55.9,28.8h7.8c1.8,0,3.2,1.5,3.2,3.2v6.1    c0,0.4,0.3,0.7,0.7,0.7s0.7-0.3,0.7-0.7V32c0-0.8,0.3-1.6,0.8-2.1c-2-0.7-3.5-1.2-5.6-2.1c-1.7-0.7-3.2-1.1-4.5-1.1    C57,26.7,56.2,27.6,55.9,28.8z" fill="#62345B"/></g><g><path d="M75.5,55.2c-0.7,0-1.2-0.6-1.2-1.2V34c0-0.7,0.6-1.2,1.2-1.2c4.5,0,8.2,3.7,8.2,8.2v6    C83.8,51.5,80,55.2,75.5,55.2z M76.8,35.4v17.2c2.6-0.6,4.5-2.9,4.5-5.6v-6C81.2,38.3,79.3,36,76.8,35.4z" fill="#62345B"/></g></g></svg>
